<svg id="ePJs2N1MIv61" xmlns="http://www.w3.org/2000/svg" xmlns:xlink="http://www.w3.org/1999/xlink" viewBox="0 0 512 512" shape-rendering="geometricPrecision" text-rendering="geometricPrecision" project-id="c20c7aafe67c4361ad2f4b8aa38c10d5" export-id="e491bb5219cb470f9b012f030d95e5d7" cached="false"><rect width="200" height="200" rx="50" ry="50" transform="matrix(0 2.193411 -2.193411 0 506.040959 67.636977)" fill="#3471ff" stroke-width="0"/><rect width="200" height="200" rx="50" ry="50" transform="matrix(0 2.19341 -2.19341 0 474.203903 35.800131)" fill="#5b8cff" stroke-width="0"/><rect width="200" height="200" rx="50" ry="50" transform="matrix(0 2.19341 -2.19341 0 444.641041 5.680824)" fill="#79a1ff" stroke-width="0"/><path d="M90.124745,75.60016c0-7.7833,8.147335-15.219445,16.807915-15.219445h42.13467c8.66058,0,16.807915,7.436155,16.807915,15.219445v36.94821h-10.443645c0-18.04233,0-37.30643,0-37.30663c0-2.48996-2.24605-4.50848-5.01668-4.50848h-44.82983c-2.77064,0-5.01668,2.01851-5.01668,4.50848c0,.00019,0,19.26429,0,37.30663h-10.443665v-36.94821Zm75.7505,70.64453l-10.443645-7c0-2.53425,0-6.08392,0-10.22579h10.443645v17.22579Zm-65.306835-7l-10.443665,7v-17.22579h10.443665c0,4.14187,0,7.69153,0,10.22579Z" transform="matrix(2.663012 0 0 2.663012 -115.565497 -122.34294)" fill="#fafafa" stroke-width="0"/><path d="M82.55445,200.500395c-5.70206,0-11.451045-5.709045-11.451045-11.361845v-62.70636c0-5.6528,5.748985-11.361845,11.451045-11.361845h90.8911c5.70206,0,11.451045,5.709045,11.451045,11.361845v62.70636c0,5.6528-5.748985,11.361845-11.451045,11.361845h-90.8911Zm87.87793-10.290125c1.87414,0,3.39342-1.42912,3.39342-3.19202v-58.46575c0-1.76291-1.51929-3.19202-3.39342-3.19202h-84.86477c-1.87414,0-3.39342,1.42912-3.39342,3.19202v58.46575c0,1.76291,1.51929,3.19202,3.39342,3.19202h69.89529v-41.668999l10.412345,6.920189v34.74881h4.557135Z" transform="matrix(2.663012 0 0 2.663012 -115.565503 -121.342943)" fill="#fafafa" stroke-width="0"/></svg>
